<svg viewBox="0 0 512 512" xmlns="http://www.w3.org/2000/svg">
  <g transform="translate(100, 100)">
    <!-- Ears behind -->
    <!-- Left ear: drooping down like Cinnamoroll -->
    <path d="M 85 40 C -10 -20 -50 180 50 200 C 90 210 130 140 100 80" fill="#ffffff" stroke="#111827" stroke-width="12" stroke-linejoin="round" stroke-linecap="round"/>

    <!-- Right ear: drooping down like Cinnamoroll -->
    <path d="M 275 40 C 370 -20 410 180 310 200 C 270 210 230 140 260 80" fill="#ffffff" stroke="#111827" stroke-width="12" stroke-linejoin="round" stroke-linecap="round"/>

    <path d="M150 0 C 80 0 80 70 80 120 L 80 300 C 80 320 100 340 120 320 C 140 300 160 330 180 310 C 200 290 220 320 240 310 C 260 300 280 320 280 300 L 280 120 C 280 70 280 0 150 0 Z" fill="#ffffff" stroke="#111827" stroke-width="12" stroke-linejoin="round"/>
    <ellipse cx="140" cy="80" rx="8" ry="12" fill="#111827"/>
    <ellipse cx="190" cy="80" rx="8" ry="12" fill="#111827"/>
    <path d="M 155 100 Q 165 110 175 100" fill="none" stroke="#111827" stroke-width="6" stroke-linecap="round"/>
    <rect x="20" y="140" width="280" height="80" rx="12" fill="#f97316" stroke="#111827" stroke-width="12"/>
    <rect x="20" y="140" width="280" height="25" rx="12" fill="#ea580c" stroke="#111827" stroke-width="12"/>
    <path d="M 210 160 C 210 200 230 220 250 200" fill="none" stroke="#ffffff" stroke-width="24" stroke-linecap="round" stroke-linejoin="round"/>
    <path d="M 210 160 C 210 200 230 220 250 200" fill="none" stroke="#111827" stroke-width="12" stroke-linecap="round" stroke-linejoin="round"/>
    <path d="M 205 160 L 255 200" fill="#ffffff"/>
    <g transform="translate(40, 100)">
      <path d="M20 40 L 0 10 L 20 25 L 40 10 L 40 40 Z" fill="#ffffff" stroke="#111827" stroke-width="6" stroke-linejoin="round"/>
      <rect x="10" y="30" width="40" height="20" rx="10" fill="#ffffff" stroke="#111827" stroke-width="6"/>
      <circle cx="20" cy="30" r="2" fill="#111827"/>
      <circle cx="30" cy="30" r="2" fill="#111827"/>
      <path d="M 20 35 Q 25 38 30 35" fill="none" stroke="#111827" stroke-width="2"/>
    </g>
    <g transform="translate(180, 80)">
      <path d="M20 40 L 0 10 L 20 25 L 40 10 L 40 40 Z" fill="#374151" stroke="#111827" stroke-width="6" stroke-linejoin="round"/>
      <rect x="10" y="30" width="40" height="20" rx="10" fill="#374151" stroke="#111827" stroke-width="6"/>
      <circle cx="20" cy="30" r="2" fill="#ffffff"/>
      <circle cx="30" cy="30" r="2" fill="#ffffff"/>
      <path d="M 20 35 Q 25 38 30 35" fill="none" stroke="#ffffff" stroke-width="2"/>
    </g>
    <g transform="translate(180, 260)">
      <path d="M20 40 L 0 10 L 20 25 L 40 10 L 40 40 Z" fill="#fcd34d" stroke="#111827" stroke-width="6" stroke-linejoin="round"/>
      <rect x="10" y="30" width="40" height="20" rx="10" fill="#fcd34d" stroke="#111827" stroke-width="6"/>
      <circle cx="20" cy="30" r="2" fill="#111827"/>
      <circle cx="30" cy="30" r="2" fill="#111827"/>
      <path d="M 20 35 Q 25 38 30 35" fill="none" stroke="#111827" stroke-width="2"/>
    </g>
  </g>
</svg>
